<svg version="1.1" id="Layer_1" xmlns="http://www.w3.org/2000/svg" x="0" y="0" viewBox="0 0 633.89 341.75" xml:space="preserve"><style>.st0{fill:#434340}</style><path class="st0" d="M128.52 315.81v-1.94c0-8.8-2.82-13.67-9.69-13.67-6.48 0-11.01 4.26-11.01 14.94 0 8.3 2.44 15.55 11.68 15.55 3.65 0 6.86-1.11 8.58-2.05l-.33-3.32c-1.88 1-4.82 2.1-7.8 2.1-5.87 0-8.3-4.48-8.3-11.62h16.87v.01zm-3.81-2.93H111.7c0-4.48 2.05-9.46 6.92-9.46 3.82-.01 6.09 3.15 6.09 9.46zm44.85-12.68c-8.03 0-10.74 8.36-10.74 15.66 0 10.07 4.15 14.72 10.02 14.72 3.43 0 5.98-1.77 7.86-3.6v3.04h3.49v-39.8h-3.71v12.51c-2.05-1.37-3.98-2.53-6.92-2.53zm-6.86 15.89c0-9.69 3.38-12.56 7.2-12.56 2.55 0 4.65 1.33 6.64 2.88v17.16c-1.61 1.88-3.93 3.76-7.03 3.76-3.99-.01-6.81-3.94-6.81-11.24zm58.91 14.5c3.65 0 6.7-1.66 9.58-4.15v3.6h3.76v-29.22h-3.76v22.2c-2.77 2.6-5.37 4.32-8.69 4.32-2.82 0-4.48-1.16-4.87-3.54-.17-.66-.22-2.05-.22-2.99v-19.98l-3.65.5v19.98c0 1.11.06 2.66.22 3.6.66 3.8 3.26 5.68 7.63 5.68zm57.42-3.1c-5.53 0-7.97-4.65-7.97-11.85 0-4.82.72-12.18 6.86-12.18 3.71 0 5.37 2.66 6.2 5.7l3.21-1.27c-.77-3.65-2.99-7.69-9.19-7.69-8.58 0-10.9 7.31-10.9 15.44 0 6.97 2.1 15.06 11.62 15.06 3.38 0 6.2-1 8.08-1.99l-.44-3.32c-2.32 1.27-4.31 2.1-7.47 2.1zm39.49-23.03c1.94-.61 4.59-1.05 6.81-1.05 5.04 0 6.7 2.05 6.7 6.53v2.1a22.98 22.98 0 00-5.09-.55c-6.75 0-11.24 2.99-11.24 10.07 0 4.87 2.55 9.02 8.25 9.02 3.15 0 5.98-1.38 8.41-3.54.22 1.83 1.72 3.54 4.43 3.54 1.49 0 2.44-.33 3.65-.72l-.33-3.04c-.89.33-1.66.55-2.38.55-1.44 0-2.05-.66-2.05-2.44v-15.66c0-6.31-3.15-9.08-9.19-9.08-2.93 0-6.37.44-8.36 1l.39 3.27zm13.51 19.65c-1.88 1.77-4.59 3.21-7.25 3.21-3.54 0-5.15-2.71-5.15-5.87 0-5.2 2.77-7.14 7.92-7.14 1.44 0 2.99.22 4.54.61l-.06 9.19zm49.56-20.31v-2.99h-7.64v-6.86l-3.65 2.1v4.76h-3.76v2.99h3.76v19.65c0 4.48 1.61 7.25 6.14 7.25 1.99 0 4.1-.77 5.2-1.33l-.39-3.1c-1.27.61-2.66 1.22-4.15 1.22-2.99 0-3.16-2.49-3.16-5.65V303.8h7.65zm30.9-2.99v29.22h3.65v-29.22h-3.65zm-.61-7.53c0 1.61.94 2.66 2.38 2.66s2.44-.94 2.44-2.6c0-1.6-.83-2.49-2.44-2.49-1.38 0-2.38.88-2.38 2.43zm47.46 37.42c8.52 0 11.4-8.19 11.4-15.66 0-7.64-2.21-14.83-10.74-14.83-8.08 0-11.57 7.03-11.57 15.39.01 6.96 2.17 15.1 10.91 15.1zm.11-3.21c-5.65 0-7.2-5.98-7.2-11.79 0-4.43 1.22-12.23 7.58-12.23 6.2 0 7.08 6.97 7.08 11.79.01 5.48-1.31 12.23-7.46 12.23zm56.87-27.29c-3.65 0-7.08 1.99-9.58 4.26v-3.65h-3.71v29.22h3.71v-22.2c2.27-2.16 5.26-4.26 8.52-4.26 3.15 0 4.65 1.11 5.09 3.49.11.72.17 2.05.17 2.99v19.98h3.65v-20.48c0-1.11 0-2.66-.17-3.6-.71-3.76-3.25-5.75-7.68-5.75z"/><path fill="#f1cf00" d="M155.07 178.54V60.87h31.38v117.67h-31.38z"/><path fill-rule="evenodd" clip-rule="evenodd" fill="#aa0f16" d="M155.07 60.87L96.24 178.54 37.4 60.87h31.38l27.46 54.91 27.45-54.91h31.38z"/><path fill-rule="evenodd" clip-rule="evenodd" fill="#8fb435" d="M186.45 178.54l58.84-117.67 58.84 117.67h-31.38l-27.46-54.91-27.46 54.91h-31.38z"/><path d="M170.61 9.88c12.46 0 22.55 10.1 22.55 22.55 0 12.46-10.1 22.55-22.55 22.55-12.46 0-22.55-10.1-22.55-22.55-.01-12.46 10.09-22.55 22.55-22.55z" fill-rule="evenodd" clip-rule="evenodd" fill="#0062a9"/><path class="st0" d="M364.31 194.97l46.55 62.02h-38.21l-32.3-39.58v39.58h-32.3V139.32h32.3v39.58l32.3-39.58h39.73l-48.07 55.65zm51.99 62.02V139.32h93.87v28.05h-63.24v16.83h59.6v28.06h-59.6v16.83h63.24v27.9H416.3z"/><path d="M186.45 256.99l58.84-117.67 58.84 117.67h-31.38l-27.46-54.91-27.46 54.91h-31.38zm-90.21-62.76l-27.46-54.91L9.94 256.99h31.38l27.46-54.91 11.77 23.53 15.69 31.38 27.45-54.91 27.46 54.91h31.38l-58.84-117.67-27.45 54.91z" fill-rule="evenodd" clip-rule="evenodd" fill="#434340"/><path d="M576.29 136.5c-.05.38-.36 1.17-.49 1.57l-1.24 3.88c-.09.27-.19.56-.25.8-.11.42-.01.28-1.43.3l-1.02.03 27.39 50.31.67-.92c.39-.53 1.51-2.23 1.72-2.77.74.11 4.16.88 5.05 1.09.14.03.28.04.42.07l1.33.29c.34-.87.8-1.71 1.15-2.63.25-.66.89-2.22.99-2.9-.12-.09-.18-.13-.34-.21l-1.48-.86c-.15-.09-.24-.15-.38-.23-.78-.42-3.15-1.93-3.76-2.17.06-.44.23-.9.29-1.32l.33-1.9c.08-.53.09-.9.16-1.39.06-.42.04-.91.1-1.35.26.02.59-.12.84-.18l4.59-1.08c.17-.04.27-.07.43-.1l.85-.22c.11-.72-.06-2.3-.1-3.02-.06-.98-.26-1.94-.34-2.89l-3.44-.3c-.45 0-.85-.08-1.27-.11-.18-.01-.2.02-.44-.02-.59-.08-1.2-.08-1.78-.17-.06-.68-.91-3.51-1.23-4.3-.19-.47-.35-.93-.56-1.37l4.41-3.61.05-.05c.28-.24.62-.45.87-.72-.23-.65-.69-1.39-1.03-2-.33-.6-1.59-2.75-2.01-3.13l-5.63 2.14c-.28.1-.55.22-.83.32-.14-.29-.69-.86-.91-1.15-.62-.78-1.36-1.49-2.06-2.2-1.27-1.28-1.27-.65-.75-1.84.13-.29.25-.53.36-.78.24-.54.49-1.02.73-1.54.19-.44 1.37-2.76 1.44-3.15l-3.63-2.53c-.35-.19-1.01-.69-1.39-.75-.1.24-3.63 3.85-4.08 4.33-.21.22-.4.41-.6.62l-2.07-.93c-.72-.32-1.49-.59-2.25-.83-.24-.08-.54-.18-.76-.24-.8-.23-.55.01-.58-1.23l-.04-2.48c-.01-.4-.09-2.97-.04-3.33-.26-.04-.27-.08-.52-.13-.4-.07-.88-.16-1.39-.25l-2.39-.35c-.18-.02-.36-.03-.52-.03l-1.14-.09z" fill-rule="evenodd" clip-rule="evenodd" fill="#717175"/><path class="st0" d="M586.73 256.99l-20.47-36.39h-19.87l.15 36.39h-32.45V139.32h55.71l33.16 60.91c-2.33 3.13-5.17 5.87-8.5 8.24l27.6 48.53h-35.33v-.01zm-22.9-91.44h-18.35v25.32h18.35c1.82 0 3.54-.33 5.16-.99 1.62-.66 3.03-1.54 4.25-2.7 1.21-1.16 2.17-2.5 2.88-3.99.71-1.52 1.06-3.16 1.06-4.98 0-1.82-.35-3.46-1.06-4.98-.71-1.49-1.67-2.83-2.88-3.99-1.21-1.16-2.63-2.05-4.25-2.7-1.62-.66-3.34-.99-5.16-.99z"/></svg>